<?xml version="1.0"?><svg width="640" height="480" xmlns="http://www.w3.org/2000/svg">
 <title>half laurel</title>
 <metadata id="metadata7">image/svg+xml</metadata>
 <g>
  <title>Layer 1</title>
  <path id="path5202" d="m116.569481,406.659515c0,0 -7.679482,-8.65271 -18.098381,-11.890839c-10.418892,-3.238129 -11.407631,2.019501 -23.443863,0.118958c-11.576096,-1.82785 -13.243809,-4.493378 -24.032997,-13.57251c-10.58009,-8.903198 -12.750019,-13.280182 -21.93259,-20.406281c-9.182539,-7.12616 -7.159889,-6.172028 -14.33227,-9.275909c-7.172379,-3.103943 -14.35725,-3.139862 -14.35725,-3.139862c0,0 13.86407,-0.166748 28.36716,1.085663c14.503088,1.252502 16.41876,0.200012 29.64522,3.924164c13.226437,3.724213 13.505657,3.017578 23.260571,10.972565c9.754898,7.955017 14.521301,19.425262 18.6875,25.582306c4.166206,6.157013 13.587692,11.160248 12.922249,10.566925c3.514694,7.805878 3.314651,6.034821 3.314651,6.034821z" stroke-width="0.744263px" stroke="#000000" fill-rule="evenodd" fill="#000000"/>
  <path id="path2231" d="m236.192001,51.668701c-89.662994,41.304802 -152.443703,128.674301 -152.443703,233.789307c0,110.39798 68.754707,204.850983 165.718697,242.935974l0,-6.539001c-93.539993,-37.733978 -159.585197,-129.365967 -159.585197,-236.396973c0,-70.349014 28.5252,-134.037003 74.642204,-180.155006c21.246994,-21.246803 46.630997,-39.255501 74.274002,-51.963303c-0.96701,-1.773197 -1.817001,0.193802 -2.606003,-1.670998l0,0z" stroke-miterlimit="4" stroke-linejoin="round" stroke-linecap="round" stroke-width="6.532733" fill="#000000"/>
  <path id="path3205" d="m179.660522,480.147156c0,0 -5.951553,-12.233734 -3.967697,-25.128845c1.983856,-12.89505 8.756516,-11.694946 13.225723,-25.790161c4.29837,-13.556396 2.075348,-16.555664 -2.645142,-32.403015c-4.628998,-15.540222 -8.596741,-19.838562 -11.903168,-33.06427c-3.306427,-13.225708 -3.306427,-10.580566 -2.975784,-19.838593c0.330643,-9.257965 4.29837,-17.193451 4.29837,-17.193451c0,0 -7.93544,15.209625 -14.548294,31.74173c-6.612854,16.532135 -8.927353,18.185364 -11.903137,34.386902c-2.975784,16.201477 -3.967712,16.201477 0,30.419128c3.967712,14.217621 14.878922,24.46756 19.838562,31.74173c4.959641,7.274139 5.620941,19.838562 5.290298,18.846619c7.274155,7.2742 5.290268,6.282227 5.290268,6.282227z" stroke-width="0.9258px" stroke="#000000" fill-rule="evenodd" fill="#000000"/>
  <path id="path5188" d="m118.256416,403.348938c0,0 -1.069107,-11.528503 4.280731,-21.305573c5.349846,-9.777191 10.309059,-6.866455 17.961449,-16.891937c7.359833,-9.642212 6.498535,-12.688293 7.458191,-26.762451c0.94104,-13.801392 -0.906586,-18.391632 0.39093,-29.955444c1.297501,-11.563873 0.519318,-9.441223 3.50238,-16.775208c2.983047,-7.334015 8.429871,-12.56076 8.429871,-12.56076c0,0 -10.699081,9.922821 -20.749832,21.287384c-10.050766,11.364502 -12.35257,12.025513 -19.453194,24.170654c-7.100655,12.145081 -7.878716,11.859863 -8.949341,24.40979c-1.070641,12.549988 4.472351,23.912781 6.222542,31.176208c1.750175,7.263428 -1.427574,17.535919 -1.395096,16.644836c3.565636,7.929016 2.301369,6.5625 2.301369,6.5625z" stroke-width="0.782304px" stroke="#000000" fill-rule="evenodd" fill="#000000"/>
  <path id="path5190" d="m88.117561,292.726013c0,0 3.115959,-9.254517 10.930817,-14.766907c7.814873,-5.51239 10.904839,-1.424805 20.709412,-6.268188c9.429726,-4.658173 9.774529,-7.31958 15.450859,-17.771957c5.56633,-10.249817 5.631439,-14.465607 10.716125,-22.863525c5.084686,-8.397949 3.70491,-7.058105 8.71553,-11.577637c5.010605,-4.519531 11.32692,-6.500458 11.32692,-6.500458c0,0 -12.287674,3.626892 -24.539566,8.603241c-12.251892,4.976318 -14.38414,4.624573 -24.467979,11.302124c-10.083839,6.677521 -10.62809,6.167877 -15.867348,15.408051c-5.239273,9.240128 -4.599152,20.037979 -5.672279,26.270706c-1.073135,6.232727 -7.264198,12.936707 -6.928185,12.264404c0.196785,7.421875 -0.374306,5.900146 -0.374306,5.900146z" stroke-width="0.684041px" stroke="#000000" fill-rule="evenodd" fill="#000000"/>
  <path id="path5192" d="m105.300629,194.729965c0,0 7.135994,-10.399933 15.425179,-13.342468c8.289192,-2.942566 10.029167,1.394836 19.920372,-0.477783c9.513077,-1.801025 10.472046,-4.053345 18.074936,-11.850677c7.455551,-7.646179 8.547623,-11.330688 15.121323,-17.468292c6.573685,-6.137604 5.020218,-5.296295 10.57666,-8.047668c5.556442,-2.751373 11.649078,-2.957794 11.649078,-2.957794c0,0 -11.796906,0.202515 -23.893082,1.598175c-12.096176,1.39563 -13.902573,0.569611 -24.491669,3.984406c-10.589081,3.414764 -10.947159,2.835419 -17.86467,9.674744c-6.917519,6.839325 -8.998413,16.472198 -11.480064,21.682495c-2.481659,5.210297 -9.621819,9.592651 -9.158623,9.084045c-1.646172,6.562134 -3.87944,8.120819 -3.87944,8.120819z" stroke-width="0.626421px" stroke="#000000" fill-rule="evenodd" fill="#000000"/>
  <path id="path5194" d="m148.669388,119.891457c0,0 6.937469,-4.362907 15.72847,-4.712219c8.791031,-0.349297 9.218674,3.26371 19.239883,4.065926c9.638107,0.771576 11.202133,-0.691193 20.723953,-4.804535c9.337311,-4.03363 11.438751,-6.532326 19.498734,-9.639351c8.060013,-3.10704 6.32959,-2.825966 12.445267,-3.639565c6.115677,-0.813629 12.017441,0.385071 12.017441,0.385071c0,0 -11.370911,-2.467682 -23.370178,-4.114151c-11.999252,-1.646469 -13.495224,-2.661911 -24.626892,-2.471741c-11.131683,0.190155 -11.309311,-0.320335 -19.899796,3.232422c-8.5905,3.552765 -13.34201,10.257294 -17.212555,13.582687c-3.870529,3.325401 -11.971603,5.00087 -11.381866,4.725296c-3.4561,4.516541 -3.16246,3.39016 -3.16246,3.39016z" stroke-width="0.552151px" stroke="#000000" fill-rule="evenodd" fill="#000000"/>
  <path id="path5196" d="m207.403305,70.062271c0,0 7.617477,-3.022835 16.324463,-1.761047c8.707031,1.261749 8.467758,4.892105 18.174011,7.510666c9.335205,2.518463 11.140015,1.36586 21.252853,-0.939697c9.91684,-2.260849 12.439209,-4.333839 20.931,-5.916901c8.491852,-1.583099 6.739197,-1.622711 12.900604,-1.305939c6.161438,0.316734 11.745087,2.572914 11.745087,2.572914c0,0 -10.729156,-4.502464 -22.226044,-8.312248c-11.496887,-3.809811 -12.782288,-5.081348 -23.761536,-6.926937c-10.979263,-1.845631 -11.060715,-2.379982 -20.155502,-0.455521c-9.094772,1.92445 -14.990646,7.648659 -19.403305,10.211391c-4.412659,2.562759 -12.683472,2.73085 -12.053329,2.567604c-4.222687,3.809532 -3.728302,2.755714 -3.728302,2.755714z" stroke-width="0.552151px" stroke="#000000" fill-rule="evenodd" fill="#000000"/>
  <path id="path5198" d="m173.712112,481.032227c0,0 -11.876724,-6.598083 -24.863174,-5.366943c-12.98645,1.23114 -12.171875,8.013824 -26.497314,11.640442c-13.777771,3.487946 -16.646271,1.113037 -32.200417,-4.470734c-15.252693,-5.475586 -19.319321,-9.654327 -32.336185,-13.686676c-13.016891,-4.032349 -10.376053,-3.881439 -19.637722,-4.081848c-9.26165,-0.200287 -17.408909,3.280518 -17.408909,3.280518c0,0 15.6343,-6.999298 32.514111,-12.612122c16.879822,-5.612701 18.661461,-7.812988 35.005127,-9.838837c16.343712,-2.025879 16.399895,-3.009308 30.369629,1.73526c13.969727,4.744507 23.584915,16.146362 30.566269,21.478149c6.981354,5.331787 19.487869,6.704163 18.516281,6.319763c6.85025,7.626373 5.972305,5.603027 5.972305,5.603027z" stroke-width="0.92255px" stroke="#000000" fill-rule="evenodd" fill="#000000"/>
  <path id="path5204" d="m88.163177,305.163818c0,0 -3.536896,-8.865997 -10.076897,-13.558044c-6.540001,-4.692017 -8.300568,-0.334625 -16.232761,-4.166748c-7.628948,-3.685669 -8.235928,-6.289795 -13.835438,-16.090149c-5.491001,-9.610413 -6.094601,-13.783051 -10.983391,-21.605331c-4.88879,-7.822296 -3.685841,-6.630463 -8.008781,-10.615417c-4.322939,-3.984955 -9.283009,-5.324371 -9.283009,-5.324371c0,0 9.61937,2.38089 19.389809,6.102997c9.770462,3.722076 11.31049,3.162689 19.691982,8.785431c8.3815,5.622772 8.719292,5.063782 13.833992,13.705643c5.114708,8.641846 6.060417,19.408997 7.679573,25.481384c1.619156,6.072357 7.107994,12.106018 6.769463,11.472809c0.830971,7.376678 1.055458,5.811798 1.055458,5.811798z" stroke-width="0.5926px" stroke="#000000" fill-rule="evenodd" fill="#000000"/>
  <path id="path5206" d="m98.631264,200.051071c0,0 -1.188232,-8.341492 -6.423325,-13.493347c-5.2351,-5.151855 -8.103561,-1.60498 -14.935616,-6.221924c-6.570847,-4.440491 -6.493706,-6.822327 -9.474594,-16.309845c-2.923119,-9.303619 -2.43544,-13.061798 -5.22858,-20.700623c-2.79314,-7.638855 -1.91555,-6.402618 -5.146587,-10.583588c-3.231022,-4.180939 -7.777542,-6.140259 -7.777542,-6.140259c0,0 8.873631,3.609558 17.548103,8.420319c8.674484,4.81076 10.339325,4.562958 17.149834,10.822754c6.810532,6.259766 7.288986,5.822449 10.092247,14.216431c2.803276,8.393951 0.941139,17.994934 0.962318,23.581177c0.021179,5.586243 5.970421,13.61618 5.800789,13.006836c-1.095161,6.606689 -2.567047,3.402069 -2.567047,3.402069z" stroke-width="0.564429px" stroke="#000000" fill-rule="evenodd" fill="#000000"/>
  <path id="path5210" d="m132.679657,137.511002c0,0 3.766022,-9.396515 2.836212,-17.212158c-0.929825,-7.815666 -4.557053,-7.607483 -6.801529,-16.32225c-2.158653,-8.381622 -0.941978,-9.999146 1.736511,-19.069931c2.626572,-8.894989 4.787567,-11.154755 6.684982,-18.772202c1.89743,-7.617451 1.870941,-6.04459 1.787155,-11.574219c-0.083771,-5.529621 -2.122253,-10.544281 -2.122253,-10.544281c0,0 4.083588,9.636078 7.447891,19.959869c3.364349,10.323792 4.583252,11.479553 6.00943,21.335297c1.426208,9.855743 1.955704,9.929764 -0.304657,18.087677c-2.260345,8.157913 -8.187347,13.43837 -10.907623,17.39357c-2.720276,3.95517 -3.199127,11.376831 -3.012711,10.811676c-3.95575,3.78244 -3.353409,5.906952 -3.353409,5.906952z" stroke-width="0.522196px" stroke="#000000" fill-rule="evenodd" fill="#000000"/>
  <path id="path5212" d="m235.210785,52.382481c0,0 7.698227,-3.376179 13.487106,-8.570702c5.78894,-5.1945 3.90451,-6.078461 9.705399,-12.890549c5.579132,-6.55168 7.540283,-6.4366 16.293701,-9.2917c8.583771,-2.799761 11.573364,-2.249479 18.733734,-4.944349c7.16037,-2.69488 5.8797,-1.82993 10.286255,-5.02023c4.406586,-3.19029 7.339996,-7.74097 7.339996,-7.74097c0,0 -5.546692,8.8851 -12.03653,17.550709c-6.489868,8.66563 -6.760315,10.347101 -13.922913,17.11174c-7.162567,6.764671 -6.935425,7.253639 -14.727478,9.946899c-7.792023,2.69323 -15.253036,0.996349 -19.910477,0.930172c-4.65744,-0.066181 -13.366455,5.118561 -13.387894,3.884899c-1.207153,-0.594719 -1.860901,-0.965919 -1.860901,-0.965919z" stroke-width="0.51839px" stroke="#000000" fill-rule="evenodd" fill="#000000"/>
  <path id="path6198" d="m185.556732,83.506119c0,0 6.756592,-7.125839 8.876587,-14.609146c2.120026,-7.483322 -1.255707,-8.835484 0.010529,-17.692753c1.217865,-8.518661 2.937347,-9.468761 8.81308,-16.557449c5.761887,-6.951321 8.583313,-8.08271 13.197769,-14.18515c4.614471,-6.10246 3.993683,-4.687221 6.015381,-9.73783c2.021698,-5.05062 2.071411,-10.46459 2.071411,-10.46459c0,0 0.055771,10.47415 -0.803085,21.266431c-0.858841,10.792297 -0.189468,12.358337 -2.632324,21.902748c-2.442825,9.544411 -1.989655,9.836502 -7.139023,16.274929c-5.149384,6.438416 -12.539688,8.709473 -16.51265,11.1409c-3.972961,2.431412 -7.223816,8.958954 -6.839966,8.525574c-5.03035,1.749886 -5.057709,4.136337 -5.057709,4.136337z" stroke-width="0.51839px" stroke="#000000" fill-rule="evenodd" fill="#000000"/>
 </g>
</svg>